# xmcd CD database file
#
# Track frame offsets:
#	150
#	3086
#	21304
#	29337
#	50304
#	76870
#	90187
#	111263
#	128532
#	144551
#	164042
#	182046
#	202915
#	228942
#	266709
#	282968
#	297752
#	320171
#
# Disc length: 4301 seconds
#
# Revision: 0
# Processed by: cddbd v1.5PL3 Copyright (c) Steve Scherf et al.
# Submitted via: CDex 1.51
#
DISCID=f010cb12
DTITLE=Anton and Dan - Fuselage In The Rumpus Room
DYEAR=2000
DGENRE=Jazz
TTITLE0=Introduction
TTITLE1=Fuselage In The Rumpus Room
TTITLE2=Stuttering Succotash
TTITLE3=Improvisation 1
TTITLE4=Dialogue
TTITLE5=Chasin' The Blues
TTITLE6=Eight Big Notes And Four Little Ones
TTITLE7=Oh Susanna
TTITLE8=For The Linear People
TTITLE9=Ptak Attack
TTITLE10=Polkabeams And Moondots
TTITLE11=Really?
TTITLE12=Walk Like An Egyptian
TTITLE13=Through Fields Of Marshmallow Plants
TTITLE14=Improvisation 2
TTITLE15=Fuselage In The Rumpus Room Remix
TTITLE16=Elusive Chickens' Daughters
TTITLE17=Motorcycle Sounds
EXTD=YEAR: 2000
EXTT0=
EXTT1=
EXTT2=
EXTT3=
EXTT4=
EXTT5=
EXTT6=
EXTT7=
EXTT8=
EXTT9=
EXTT10=
EXTT11=
EXTT12=
EXTT13=
EXTT14=
EXTT15=
EXTT16=
EXTT17=
PLAYORDER=
